<?xml version="1.0" encoding="UTF-8" standalone="no"?>
<!-- Created with Inkscape (http://www.inkscape.org/) -->

<svg
   width="256"
   height="256"
   viewBox="0 0 256 256"
   version="1.1"
   id="svg5"
   inkscape:export-filename="..\icon.png"
   inkscape:export-xdpi="96"
   inkscape:export-ydpi="96"
   xml:space="preserve"
   inkscape:version="1.2.2 (732a01da63, 2022-12-09)"
   sodipodi:docname="ICON.svg"
   xmlns:inkscape="http://www.inkscape.org/namespaces/inkscape"
   xmlns:sodipodi="http://sodipodi.sourceforge.net/DTD/sodipodi-0.dtd"
   xmlns="http://www.w3.org/2000/svg"
   xmlns:svg="http://www.w3.org/2000/svg"><sodipodi:namedview
     id="namedview7"
     pagecolor="#ffffff"
     bordercolor="#999999"
     borderopacity="1"
     inkscape:showpageshadow="0"
     inkscape:pageopacity="0"
     inkscape:pagecheckerboard="0"
     inkscape:deskcolor="#d1d1d1"
     inkscape:document-units="px"
     showgrid="false"
     inkscape:zoom="0.64947918"
     inkscape:cx="213.24779"
     inkscape:cy="170.90617"
     inkscape:window-width="1440"
     inkscape:window-height="837"
     inkscape:window-x="3832"
     inkscape:window-y="81"
     inkscape:window-maximized="1"
     inkscape:current-layer="layer1" /><defs
     id="defs2" /><g
     inkscape:label="Camada 1"
     inkscape:groupmode="layer"
     id="layer1"><rect
       style="fill:#ffffff;fill-opacity:1;stroke:#ffffff;stroke-width:8.51521;stroke-opacity:1"
       id="rect2568"
       width="569.28632"
       height="902.80756"
       x="-172.40765"
       y="-323.60907" /><g
       id="g12675"
       transform="matrix(3.1966853,0.78024001,-0.78024001,3.1966853,-169.78689,36.548997)"><g
         id="g12688"
         transform="translate(-6.5640546,57.513621)"><g
           id="g9962"
           transform="translate(209.58033,-92.814144)"><path
             style="fill:none;stroke:#1e7d86;stroke-width:2.28;stroke-dasharray:none;stroke-opacity:1"
             d="m -111.34888,70.729752 c 0,0 -34.35445,-17.706496 -34.35445,-45.32478 0,-27.618284 37.73703,-15.5709009 32.82926,1.173285 -4.90778,16.744186 1.52516,44.151495 1.52516,44.151495 z"
             id="path1529"
             sodipodi:nodetypes="csscc" /><path
             style="fill:none;stroke:#1e7d86;stroke-width:2.28;stroke-dasharray:none;stroke-opacity:1"
             d="m -112.95808,70.729752 c 0,0 34.35444,-17.706496 34.35444,-45.32478 0,-27.618284 -37.87311,-15.5709009 -32.96534,1.173285 4.90778,16.744186 -1.38907,44.151495 -1.38907,44.151495 z"
             id="path1531"
             sodipodi:nodetypes="csscc" /><path
             style="fill:#ffffff;fill-opacity:1;stroke:none;stroke-width:2.28;stroke-dasharray:none;stroke-opacity:1"
             d="m -113.56804,23.13549 1.36091,5.460657 0.12213,40.317245 -1.6239,-0.817963 -6.93588,-31.963236 z"
             id="path9219"
             sodipodi:nodetypes="cccccc" /><path
             style="fill:#ffffff;fill-opacity:1;stroke:none;stroke-width:2.28;stroke-dasharray:none;stroke-opacity:1"
             d="m -113.56804,23.13549 1.36091,5.460657 0.12213,40.317245 -1.6239,-0.817963 -6.93588,-31.963236 z"
             id="path9947"
             sodipodi:nodetypes="cccccc" /><path
             style="fill:#ffffff;fill-opacity:1;stroke:none;stroke-width:2.28;stroke-dasharray:none;stroke-opacity:1"
             d="m -113.56804,23.13549 1.36091,5.460657 0.12213,40.317245 -1.6239,-0.817963 -6.93588,-31.963236 z"
             id="path9949"
             sodipodi:nodetypes="cccccc" /><path
             style="fill:#ffffff;fill-opacity:1;stroke:none;stroke-width:2.28;stroke-dasharray:none;stroke-opacity:1"
             d="m -110.84899,23.13549 -1.36091,5.460657 -0.12213,40.317245 1.6239,-0.817963 6.93588,-31.963236 z"
             id="path9951"
             sodipodi:nodetypes="cccccc" /><path
             style="fill:#ffffff;fill-opacity:1;stroke:none;stroke-width:2.28;stroke-dasharray:none;stroke-opacity:1"
             d="m -114.38034,70.333593 3.39803,1.89677 -2.29228,0.05954 3.35124,-1.969068 1.45873,2.726075 -5.91997,2.347572 -3.91262,-0.952638 c 0.98802,-1.166967 3.33017,-3.590806 3.91687,-4.108251 z"
             id="path9953"
             sodipodi:nodetypes="cccccccc" /></g><g
           id="g12662"
           transform="translate(80.493832,-77.755298)"><path
             id="rect11522"
             style="fill:#ffffff;stroke:#1e7d86;stroke-width:2.28"
             d="m 34.690927,30.095888 v 8.541015 h -8.539066 v 10.296876 h 8.539066 v 8.541014 h 10.296875 v -8.541014 h 8.541016 V 38.636903 h -8.541016 v -8.541015 z" /><path
             id="path12650"
             style="color:#000000;fill:#1e7d86;fill-opacity:1;stroke-width:2.28;-inkscape-stroke:none"
             d="m 38.251472,30.095887 -3.560546,3.560546 v 3.226563 l 6.787109,-6.787109 z m 6.736329,0.09766 -18.742188,18.740236 h 3.226563 l 15.515625,-15.51758 z m 0,6.830078 -11.908203,11.910158 h 1.611328 v 1.61133 L 46.601082,38.636902 h -1.613281 z m -15.275391,1.613281 -3.560547,3.560547 v 3.22266 l 6.783203,-6.783207 z m 20.496094,0 -15.517578,15.517577 v 3.22461 L 53.433113,38.636902 Z m 3.320312,3.511719 -6.785156,6.785158 h 3.224609 l 3.560547,-3.56055 z m -8.541015,8.541018 -6.785157,6.78515 h 3.22461 l 3.560547,-3.56054 z" /></g></g></g><g
       id="g12701"
       transform="rotate(-26.459715,545.48818,653.43708)"><path
         style="fill:none;fill-opacity:1;stroke:#95bc85;stroke-width:4;stroke-dasharray:none;stroke-opacity:1"
         id="path17013"
         sodipodi:type="arc"
         sodipodi:cx="346.87683"
         sodipodi:cy="25.73337"
         sodipodi:rx="16.970562"
         sodipodi:ry="16.970562"
         sodipodi:start="1.1667187"
         sodipodi:end="0.3987941"
         sodipodi:arc-type="arc"
         d="m 353.54916,41.337215 a 16.970562,16.970562 0 0 1 -20.7164,-6.076822 16.970562,16.970562 0 0 1 2.01241,-21.49528 16.970562,16.970562 0 0 1 21.48435,-2.12595 16.970562,16.970562 0 0 1 6.18619,20.684001"
         sodipodi:open="true" /><path
         id="rect17922"
         style="fill:none;stroke:#95bc85;stroke-width:4"
         d="m 338.98974,-30.99954 c 0.61872,-4.33103 4.66705,-10.35447 14.21299,-11.85707 l 89.59784,-0.34313 c 6.45234,0.26517 13.37751,8.08834 14.9685,13.21486 l 7.96958,53.432561 -33.16732,4.402418 -7.38357,-9.787037 C 422.565,15.638366 419.01538,14.26448 414.76161,14.171325 l -32.90404,0.173178 c -5.5,0.09375 -10.64117,3.609502 -11.79742,5.828252 l -6.38607,9.45811 -33.33815,-9.224684 z"
         sodipodi:nodetypes="ccccccccccccc" /><path
         style="fill:none;fill-opacity:1;stroke:#95bc85;stroke-width:4;stroke-dasharray:none;stroke-opacity:1"
         id="path17925"
         sodipodi:type="arc"
         sodipodi:cx="-449.14563"
         sodipodi:cy="25.73337"
         sodipodi:rx="16.970562"
         sodipodi:ry="16.970562"
         sodipodi:start="1.1667187"
         sodipodi:end="0.3987941"
         sodipodi:arc-type="arc"
         d="m -442.4733,41.337215 a 16.970562,16.970562 0 0 1 -20.7164,-6.076822 16.970562,16.970562 0 0 1 2.01241,-21.49528 16.970562,16.970562 0 0 1 21.48435,-2.12595 16.970562,16.970562 0 0 1 6.18619,20.684001"
         sodipodi:open="true"
         transform="scale(-1,1)" /><path
         style="fill:none;fill-opacity:1;stroke:#95bc85;stroke-width:4;stroke-dasharray:none;stroke-opacity:1"
         d="m 380.13752,-32.19593 h 36"
         id="path17927" /><path
         style="fill:none;fill-opacity:1;stroke:#95bc85;stroke-width:4;stroke-dasharray:none;stroke-opacity:1"
         d="m 398.70002,-43.44593 v 10.9375"
         id="path17933" /><path
         style="fill:#ffffff;fill-opacity:1;stroke:none;stroke-width:4;stroke-dasharray:none;stroke-opacity:1"
         d="m 372.82502,-37.88343 c 0.004,-0.0967 0,-11.3125 0,-11.3125 l 49.4375,-0.125 0.7505,0.125 v 11.51072 l -22.2505,0.30178 -0.15625,-7.9375 -3.84325,-0.125 v 7.9375 z"
         id="path17935"
         sodipodi:nodetypes="cccccccccc" /><circle
         style="fill:#ffffff;fill-opacity:1;stroke:#95bc85;stroke-width:5.11392;stroke-dasharray:none;stroke-opacity:1"
         id="path18935"
         cx="434.07504"
         cy="-10.570929"
         r="10.068038" /><path
         style="fill:#ffffff;fill-opacity:1;stroke:#95bc85;stroke-width:4;stroke-dasharray:none;stroke-opacity:1"
         d="M 363.51252,-21.82093 V 0.3040703"
         id="path19665" /><path
         style="fill:#ffffff;fill-opacity:1;stroke:#95bc85;stroke-width:4;stroke-dasharray:none;stroke-opacity:1"
         d="m 374.57502,-10.75843 h -22.125"
         id="path19744" /><path
         style="fill:#ffffff;fill-opacity:1;stroke:none;stroke-width:4;stroke-dasharray:none;stroke-opacity:1"
         d="m 360.7469,31.288445 c 0.0937,-0.21875 6.54687,-10.609375 6.54687,-10.609375 l -12.90625,-18.9999997 -19.625,4.375 -2.64062,17.0624997 z"
         id="path19766"
         sodipodi:nodetypes="cccccc" /><path
         style="fill:#ffffff;fill-opacity:1;stroke:none;stroke-width:4;stroke-dasharray:none;stroke-opacity:1"
         d="m 435.2299,31.100945 c -0.0937,-0.21875 -6.10937,-12.546875 -7.42187,-13.609375 l 13.96875,-13.1874997 19.625,4.375 2.64062,17.0624997 z"
         id="path20494"
         sodipodi:nodetypes="cccccc" /></g></g></svg>
